<?xml version="1.0" standalone="no"?>
<!DOCTYPE svg PUBLIC "-//W3C//DTD SVG 20010904//EN"
 "http://www.w3.org/TR/2001/REC-SVG-20010904/DTD/svg10.dtd">
<svg version="1.0" xmlns="http://www.w3.org/2000/svg"
 width="314.000000pt" height="68.000000pt" viewBox="0 0 314.000000 68.000000"
 preserveAspectRatio="xMidYMid meet">

<g transform="translate(0.000000,68.000000) scale(0.100000,-0.100000)"
fill="#000000" stroke="none">
<path d="M300 590 c0 -24 -4 -30 -20 -30 -60 0 -145 -76 -166 -147 -8 -30 -16
-39 -37 -41 -37 -5 -37 -39 0 -44 22 -2 28 -11 39 -49 17 -57 85 -123 143
-139 34 -9 41 -15 41 -35 0 -18 5 -25 20 -25 15 0 20 7 20 25 0 20 7 26 43 37
57 17 131 91 143 144 8 32 14 40 37 42 37 4 39 42 2 42 -16 0 -28 7 -31 18
-17 51 -30 78 -52 104 -28 33 -91 68 -122 68 -16 0 -20 6 -20 30 0 23 -4 30
-20 30 -16 0 -20 -7 -20 -30z m98 -84 c60 -31 94 -88 94 -156 0 -81 -53 -149
-133 -170 -95 -26 -188 36 -213 143 -14 59 26 140 88 178 37 23 125 25 164 5z"/>
<path d="M720 320 l0 -150 25 0 c24 0 25 3 25 60 0 87 15 88 99 6 62 -59 73
-66 110 -66 39 0 41 2 41 30 0 27 -3 30 -33 30 -23 0 -41 8 -60 28 -15 15 -27
31 -27 35 0 4 20 7 44 7 56 0 71 18 71 87 0 78 -10 83 -167 83 l-128 0 0 -150z
m240 65 l0 -35 -95 0 -95 0 0 35 0 35 95 0 95 0 0 -35z"/>
<path d="M1070 450 c-18 -18 -20 -33 -20 -129 0 -106 1 -110 26 -130 24 -19
40 -21 150 -21 l124 0 0 30 0 30 -126 0 -125 0 3 33 3 32 123 3 c122 3 122 3
122 27 0 24 0 24 -122 27 l-123 3 0 30 0 30 123 3 122 3 0 24 0 25 -130 0
c-117 0 -132 -2 -150 -20z"/>
<path d="M1407 452 c-25 -27 -25 -243 0 -263 11 -10 54 -15 145 -17 l128 -4 0
31 0 31 -120 0 -120 0 0 95 0 95 120 0 120 0 0 25 0 25 -128 0 c-112 0 -131
-2 -145 -18z"/>
<path d="M1740 450 c-18 -18 -20 -33 -20 -129 0 -106 1 -110 26 -130 23 -18
41 -21 126 -21 92 0 101 2 123 25 23 23 25 31 25 130 0 143 -2 145 -150 145
-97 0 -112 -2 -130 -20z m220 -125 l0 -95 -95 0 -95 0 0 88 c0 49 3 92 7 95 3
4 46 7 95 7 l88 0 0 -95z"/>
<path d="M2060 376 l0 -94 60 -52 c38 -32 70 -52 85 -52 15 0 47 20 85 52 l60
52 0 94 c0 94 0 94 -25 94 -25 0 -25 -1 -25 -79 l0 -78 -45 -42 c-49 -46 -50
-45 -109 6 -36 32 -36 33 -36 113 0 79 0 80 -25 80 -25 0 -25 0 -25 -94z"/>
<path d="M2410 450 c-18 -18 -20 -33 -20 -127 0 -60 4 -113 8 -119 17 -26 56
-34 171 -34 l121 0 0 30 0 30 -126 0 -125 0 3 33 3 32 123 3 c122 3 122 3 122
27 0 24 0 24 -122 27 l-123 3 0 30 0 30 123 3 122 3 0 24 0 25 -130 0 c-117 0
-132 -2 -150 -20z"/>
<path d="M2720 320 l0 -150 30 0 30 0 0 65 c0 54 3 65 17 65 9 0 47 -29 84
-65 57 -55 72 -65 103 -65 33 0 36 2 36 30 0 27 -3 30 -33 30 -23 0 -41 8 -60
28 -32 33 -27 42 24 42 52 0 69 20 69 84 0 81 -10 86 -168 86 l-132 0 0 -150z
m248 63 l3 -33 -95 0 -96 0 0 35 0 36 93 -3 92 -3 3 -32z"/>
</g>
</svg>
